<svg width="24" height="24" viewBox="0 0 24 24" fill="none" xmlns="http://www.w3.org/2000/svg">
<circle cx="12" cy="12" r="12" fill="#13C98A"/>
<g filter="url(#filter0_d_1_70)">
<mask id="mask0_1_70" style="mask-type:alpha" maskUnits="userSpaceOnUse" x="7" y="8" width="10" height="8">
<path fill-rule="evenodd" clip-rule="evenodd" d="M16.891 9.55671L11.0084 15.881C10.9454 15.9559 10.8463 16 10.7411 16C10.6358 16 10.5368 15.9559 10.4738 15.881L10.3499 15.7539L10.221 15.6153L9.66637 15.0184L7.11128 12.2502C6.96291 12.081 6.96291 11.8438 7.11128 11.6746L7.91068 10.812C7.97369 10.737 8.07276 10.6929 8.17798 10.6929C8.28321 10.6929 8.38227 10.737 8.44528 10.812L10.7356 13.2905L15.553 8.11845C15.6162 8.04386 15.7152 8 15.8203 8C15.9253 8 16.0243 8.04386 16.0876 8.11845L16.887 8.98105C17.0362 9.14956 17.0378 9.38657 16.891 9.55671Z" fill="white"/>
</mask>
<g mask="url(#mask0_1_70)">
<rect width="24" height="24" fill="white"/>
</g>
</g>
<defs>
<filter id="filter0_d_1_70" x="-4" y="0" width="32" height="32" filterUnits="userSpaceOnUse" color-interpolation-filters="sRGB">
<feFlood flood-opacity="0" result="BackgroundImageFix"/>
<feColorMatrix in="SourceAlpha" type="matrix" values="0 0 0 0 0 0 0 0 0 0 0 0 0 0 0 0 0 0 127 0" result="hardAlpha"/>
<feOffset dy="4"/>
<feGaussianBlur stdDeviation="2"/>
<feComposite in2="hardAlpha" operator="out"/>
<feColorMatrix type="matrix" values="0 0 0 0 0 0 0 0 0 0 0 0 0 0 0 0 0 0 0.25 0"/>
<feBlend mode="normal" in2="BackgroundImageFix" result="effect1_dropShadow_1_70"/>
<feBlend mode="normal" in="SourceGraphic" in2="effect1_dropShadow_1_70" result="shape"/>
</filter>
</defs>
</svg>
