<svg width="24" height="24" viewBox="0 0 24 24" fill="none" xmlns="http://www.w3.org/2000/svg">
<circle cx="12" cy="12" r="12" fill="#F8478D"/>
<mask id="mask0_1_64" style="mask-type:alpha" maskUnits="userSpaceOnUse" x="10" y="7" width="3" height="10">
<path d="M12.4375 13.1582H11.0078L10.709 7.43359H12.7363L12.4375 13.1582ZM10.6855 15.1621C10.6855 14.834 10.7734 14.5859 10.9492 14.418C11.125 14.25 11.3809 14.166 11.7168 14.166C12.041 14.166 12.291 14.252 12.4668 14.4238C12.6465 14.5957 12.7363 14.8418 12.7363 15.1621C12.7363 15.4707 12.6465 15.7148 12.4668 15.8945C12.2871 16.0703 12.0371 16.1582 11.7168 16.1582C11.3887 16.1582 11.1348 16.0723 10.9551 15.9004C10.7754 15.7246 10.6855 15.4785 10.6855 15.1621Z" fill="white"/>
</mask>
<g mask="url(#mask0_1_64)">
<rect width="24" height="24" fill="white"/>
</g>
</svg>
